<svg width="203" height="63" viewBox="0 0 203 63" fill="none" xmlns="http://www.w3.org/2000/svg">
<rect x="16" y="10" width="187" height="8" rx="3" fill="#D16666"/>
<circle cx="14.5" cy="13.5" r="13.5" fill="#8FCCE6"/>
<g clip-path="url(#clip0)">
<path d="M34.6282 29.1964C32.0518 28.4639 29.3168 28.505 26.7636 29.3146C24.859 29.8568 23.0225 30.6149 21.29 31.5741L18.64 26.9841C18.1637 26.2218 17.4049 25.6791 16.5296 25.4747C15.6542 25.2704 14.7336 25.421 13.9689 25.8936C13.1773 26.3194 12.5866 27.0415 12.3259 27.9017C12.0652 28.762 12.1558 29.6905 12.5778 30.4841L17.5778 39.1444L15.4022 38.5761C14.4461 38.3297 13.4316 38.4683 12.5766 38.9619C11.7216 39.4556 11.0943 40.2649 10.8296 41.2161C10.6944 41.6881 10.6552 42.1824 10.7145 42.6699C10.7738 43.1573 10.9302 43.6279 11.1746 44.0537C11.6348 44.8873 12.4064 45.5047 13.3207 45.7707L20.1163 48.2212C21.0162 49.3302 22.1143 50.2624 23.3548 50.9703C24.2847 51.5285 25.2983 51.9336 26.3568 52.17L27.3168 53.8328C27.451 54.0714 27.6715 54.2496 27.9331 54.3306C28.1946 54.4116 28.4773 54.3892 28.7228 54.2681L40.7693 47.3131C40.9969 47.161 41.1576 46.9274 41.2183 46.6604C41.2789 46.3934 41.2349 46.1133 41.0953 45.8778L39.7453 43.5395C40.2772 40.5308 39.7161 37.431 38.1634 34.7995L35.1634 29.6034C35.0373 29.41 34.8482 29.2663 34.6282 29.1964V29.1964ZM36.4563 35.8428C37.841 38.1134 38.3323 40.8177 37.8346 43.4302C37.7334 43.6963 37.7383 43.9911 37.8482 44.2537L38.9282 46.1243L28.6572 52.0543L27.9172 50.7726C27.8355 50.6306 27.7202 50.5109 27.5814 50.4239C27.4426 50.3369 27.2845 50.2854 27.1211 50.2738C26.1649 50.1164 25.2499 49.7692 24.43 49.2526C23.3389 48.6369 22.3861 47.8035 21.6307 46.8042C21.5132 46.6221 21.3398 46.4832 21.1365 46.4082L13.9657 43.8279C13.7478 43.7711 13.5435 43.6716 13.3644 43.5351C13.1853 43.3986 13.0351 43.228 12.9226 43.033C12.81 42.838 12.7373 42.6226 12.7086 42.3993C12.68 42.176 12.696 41.9492 12.7557 41.7322C12.8787 41.2867 13.172 40.9075 13.5722 40.6764C13.9724 40.4453 14.4475 40.381 14.8948 40.4972L18.9928 41.5952L20.5628 44.3146L21.7949 42.4485L14.3099 29.4841C14.1577 29.1493 14.1413 28.7685 14.2642 28.4218C14.3871 28.0752 14.6398 27.7897 14.9689 27.6256C15.2756 27.4226 15.6492 27.3466 16.0108 27.4134C16.3725 27.4803 16.6941 27.6849 16.908 27.9841L22.808 38.2032L24.755 37.5756L22.295 33.3148C23.0301 32.9095 23.7857 32.5426 24.5588 32.2157L27.1738 36.745L28.7344 36.2481L26.0594 31.6149C26.4545 31.4791 26.8632 31.3471 27.2906 31.2273C27.8074 31.0856 28.3315 30.9719 28.8606 30.8867L31.4356 35.3467L32.9962 34.8498L30.6112 30.7189C31.6279 30.6618 32.6475 30.7453 33.6413 30.9671L36.4563 35.8428Z" fill="#71716D"/>
</g>
<defs>
<clipPath id="clip0">
<rect width="36" height="36" fill="white" transform="translate(0.41156 31.4115) rotate(-30)"/>
</clipPath>
</defs>
</svg>
